<?xml version="1.0" standalone="no"?>
<!DOCTYPE svg PUBLIC "-//W3C//DTD SVG 20010904//EN"
 "http://www.w3.org/TR/2001/REC-SVG-20010904/DTD/svg10.dtd">
<svg version="1.0" xmlns="http://www.w3.org/2000/svg"
 width="35.000000pt" height="35.000000pt" viewBox="0 0 35.000000 35.000000"
 preserveAspectRatio="xMidYMid meet">
<metadata>
Created by potrace 1.16, written by Peter Selinger 2001-2019
</metadata>
<g transform="translate(0.000000,35.000000) scale(0.008046,-0.008083)"
fill="#000000" stroke="none">
<path d="M2104 4244 c-60 -21 -119 -76 -150 -140 -24 -48 -26 -63 -22 -128 4
-56 11 -85 31 -119 33 -56 88 -102 142 -120 l40 -14 3 -96 3 -97 -208 0 c-235
0 -331 -14 -467 -69 -271 -108 -493 -363 -562 -643 -10 -45 -22 -71 -33 -75
-73 -23 -164 -79 -209 -128 -93 -102 -129 -215 -119 -383 6 -118 25 -181 76
-258 l38 -59 -10 -100 c-12 -127 4 -332 37 -470 71 -293 198 -518 410 -731
224 -223 473 -359 779 -426 87 -19 134 -22 312 -23 236 0 323 14 518 81 478
167 853 577 978 1070 38 154 56 346 43 494 -9 110 -8 114 14 144 67 88 92 174
92 311 0 159 -33 256 -117 346 -52 56 -92 83 -171 115 l-55 22 -24 84 c-93
327 -330 566 -658 664 -83 25 -108 27 -330 33 l-240 6 0 94 0 93 49 19 c222
84 221 416 -1 499 -62 23 -131 25 -189 4z m188 -110 c99 -63 102 -217 6 -285
-48 -35 -134 -38 -188 -8 -80 45 -110 141 -70 223 47 99 159 130 252 70z m481
-722 c254 -73 450 -236 558 -467 70 -150 79 -209 79 -547 0 -328 -6 -383 -61
-514 -115 -275 -357 -469 -648 -519 -76 -14 -167 -16 -549 -13 -436 4 -461 5
-536 26 -318 89 -555 343 -622 668 -13 61 -15 133 -12 387 l4 312 32 95 c46
132 104 230 195 326 95 101 192 167 312 212 154 59 180 61 700 58 451 -2 473
-3 548 -24z m-1890 -1057 c4 -258 6 -287 29 -373 13 -51 22 -94 20 -96 -9 -9
-92 23 -135 53 -61 42 -103 95 -128 161 -18 47 -20 73 -17 185 3 150 20 197
94 271 40 40 111 85 126 81 4 -1 9 -128 11 -282z m2693 256 c56 -33 104 -83
133 -139 51 -100 53 -285 5 -392 -27 -61 -95 -134 -150 -163 -40 -21 -104 -37
-104 -27 0 5 10 46 21 92 19 72 22 121 26 371 3 158 8 287 12 287 3 0 29 -13
57 -29z m-2731 -801 c32 -11 75 -20 95 -20 35 0 39 -3 76 -65 134 -231 367
-396 630 -450 69 -14 149 -16 585 -13 l504 4 88 27 c242 75 463 251 562 448
24 46 24 46 84 52 33 3 84 16 114 30 l54 25 6 -72 c7 -76 -5 -252 -23 -351
-37 -200 -140 -431 -267 -598 -51 -67 -192 -217 -204 -217 -4 0 -13 24 -19 53
-45 188 -157 331 -325 412 -49 24 -117 49 -150 55 -41 8 -199 10 -495 8 l-435
-3 -67 -26 c-198 -77 -339 -229 -390 -423 -10 -38 -20 -72 -23 -74 -15 -15
-194 189 -267 303 -148 229 -217 455 -226 737 -5 176 -1 208 22 189 7 -6 39
-20 71 -31z m1798 -775 c186 -39 342 -191 392 -382 26 -99 22 -118 -32 -158
-70 -51 -255 -140 -360 -174 -134 -44 -241 -62 -393 -68 -283 -12 -545 55
-793 200 -124 74 -123 71 -108 160 35 209 212 392 412 426 30 5 225 9 434 10
295 0 395 -3 448 -14z"/>
<path d="M1680 3045 c-241 -53 -442 -260 -485 -500 -19 -104 -19 -366 0 -470
33 -187 164 -359 335 -444 141 -69 179 -73 707 -69 449 3 459 4 528 27 162 54
307 178 378 323 57 117 70 205 65 436 -4 180 -7 204 -31 279 -33 100 -87 182
-170 260 -77 72 -130 104 -233 140 l-79 28 -475 2 c-380 2 -488 -1 -540 -12z
m1067 -110 c169 -57 281 -170 339 -342 25 -75 26 -87 25 -282 -1 -112 -6 -224
-13 -250 -32 -133 -148 -280 -268 -341 -117 -59 -121 -60 -640 -60 -465 1
-476 1 -541 23 -179 61 -308 197 -354 372 -21 83 -21 427 0 510 46 175 175
311 354 372 65 22 76 22 544 23 l478 0 76 -25z"/>
<path d="M1650 2534 c-84 -72 -79 -189 12 -244 41 -25 110 -26 150 -2 91 53
94 198 5 252 -49 30 -127 27 -167 -6z"/>
<path d="M2576 2541 c-43 -28 -66 -70 -66 -119 0 -85 47 -141 126 -150 55 -6
96 11 134 55 25 28 30 42 30 84 0 62 -19 101 -63 128 -44 27 -121 28 -161 2z"/>
<path d="M1945 2120 c-15 -17 -16 -24 -5 -49 16 -39 87 -105 137 -127 25 -11
65 -17 118 -18 67 0 88 4 130 26 93 48 147 119 126 164 -17 38 -54 31 -91 -16
-43 -55 -95 -80 -165 -80 -65 0 -122 25 -154 67 -36 48 -41 53 -60 53 -10 0
-26 -9 -36 -20z"/>
</g>
</svg>
